<mxfile host="Electron" modified="2023-04-16T03:25:06.704Z" agent="Mozilla/5.0 (Windows NT 10.0; Win64; x64) AppleWebKit/537.36 (KHTML, like Gecko) draw.io/21.1.2 Chrome/106.0.5249.199 Electron/21.4.3 Safari/537.36" etag="Bjkz5LiXgx4U2Yi9XBfx" version="21.1.2" type="device">
  <diagram id="7k8M25I1EJLbfj225uPY" name="Страница 1">
    <mxGraphModel dx="446" dy="288" grid="1" gridSize="10" guides="1" tooltips="1" connect="1" arrows="1" fold="1" page="1" pageScale="1" pageWidth="827" pageHeight="1169" math="0" shadow="0">
      <root>
        <mxCell id="0" />
        <mxCell id="1" parent="0" />
        <mxCell id="ZjYZ1jOLjF3a_fjfkov7-1" value="IDLE" style="ellipse;whiteSpace=wrap;html=1;aspect=fixed;" parent="1" vertex="1">
          <mxGeometry x="360" y="80" width="80" height="80" as="geometry" />
        </mxCell>
        <mxCell id="ZjYZ1jOLjF3a_fjfkov7-2" value="" style="curved=1;endArrow=classic;html=1;rounded=0;" parent="1" edge="1">
          <mxGeometry width="50" height="50" relative="1" as="geometry">
            <mxPoint x="311" y="63" as="sourcePoint" />
            <mxPoint x="371" y="93" as="targetPoint" />
            <Array as="points">
              <mxPoint x="341" y="63" />
            </Array>
          </mxGeometry>
        </mxCell>
        <mxCell id="ZjYZ1jOLjF3a_fjfkov7-3" value="&lt;b&gt;1. POWER ON&lt;/b&gt;" style="edgeLabel;html=1;align=center;verticalAlign=middle;resizable=0;points=[];labelBackgroundColor=none;" parent="ZjYZ1jOLjF3a_fjfkov7-2" vertex="1" connectable="0">
          <mxGeometry x="0.0844" y="-4" relative="1" as="geometry">
            <mxPoint x="-42" y="6" as="offset" />
          </mxGeometry>
        </mxCell>
        <mxCell id="ZjYZ1jOLjF3a_fjfkov7-10" value="INA" style="ellipse;whiteSpace=wrap;html=1;aspect=fixed;" parent="1" vertex="1">
          <mxGeometry x="550" y="200" width="80" height="80" as="geometry" />
        </mxCell>
        <mxCell id="ZjYZ1jOLjF3a_fjfkov7-11" value="" style="curved=1;endArrow=classic;html=1;rounded=0;entryX=0;entryY=0;entryDx=0;entryDy=0;exitX=1;exitY=1;exitDx=0;exitDy=0;" parent="1" source="ZjYZ1jOLjF3a_fjfkov7-1" target="ZjYZ1jOLjF3a_fjfkov7-10" edge="1">
          <mxGeometry width="50" height="50" relative="1" as="geometry">
            <mxPoint x="396.8799999999999" y="183.76" as="sourcePoint" />
            <mxPoint x="292.0000000000001" y="240" as="targetPoint" />
            <Array as="points" />
          </mxGeometry>
        </mxCell>
        <mxCell id="ZjYZ1jOLjF3a_fjfkov7-12" value="3. ACMD41 / R3&lt;br&gt;(VDD range not compatible)" style="edgeLabel;html=1;align=center;verticalAlign=middle;resizable=0;points=[];labelBackgroundColor=none;" parent="ZjYZ1jOLjF3a_fjfkov7-11" vertex="1" connectable="0">
          <mxGeometry x="0.6641" relative="1" as="geometry">
            <mxPoint x="19" y="-38" as="offset" />
          </mxGeometry>
        </mxCell>
        <mxCell id="ZjYZ1jOLjF3a_fjfkov7-14" value="" style="curved=1;endArrow=classic;html=1;rounded=0;exitX=0.792;exitY=0.092;exitDx=0;exitDy=0;exitPerimeter=0;entryX=0.969;entryY=0.323;entryDx=0;entryDy=0;entryPerimeter=0;" parent="1" source="ZjYZ1jOLjF3a_fjfkov7-1" target="ZjYZ1jOLjF3a_fjfkov7-1" edge="1">
          <mxGeometry width="50" height="50" relative="1" as="geometry">
            <mxPoint x="423.48" y="86.15999999999997" as="sourcePoint" />
            <mxPoint x="439" y="110" as="targetPoint" />
            <Array as="points">
              <mxPoint x="430" y="80" />
              <mxPoint x="450" y="80" />
              <mxPoint x="450" y="100" />
            </Array>
          </mxGeometry>
        </mxCell>
        <mxCell id="ZjYZ1jOLjF3a_fjfkov7-16" value="&lt;b style=&quot;&quot;&gt;2. CMD55 (RCA = 0x0000) / R1&lt;/b&gt;" style="edgeLabel;html=1;align=center;verticalAlign=middle;resizable=0;points=[];labelBackgroundColor=none;" parent="ZjYZ1jOLjF3a_fjfkov7-14" vertex="1" connectable="0">
          <mxGeometry x="-0.0997" y="-1" relative="1" as="geometry">
            <mxPoint x="59" y="-10" as="offset" />
          </mxGeometry>
        </mxCell>
        <mxCell id="ZjYZ1jOLjF3a_fjfkov7-17" value="" style="curved=1;endArrow=classic;html=1;rounded=0;exitX=1;exitY=0.436;exitDx=0;exitDy=0;exitPerimeter=0;entryX=0.963;entryY=0.688;entryDx=0;entryDy=0;entryPerimeter=0;" parent="1" source="ZjYZ1jOLjF3a_fjfkov7-1" target="ZjYZ1jOLjF3a_fjfkov7-1" edge="1">
          <mxGeometry width="50" height="50" relative="1" as="geometry">
            <mxPoint x="439.3600000000001" y="116.36000000000001" as="sourcePoint" />
            <mxPoint x="440" y="136" as="targetPoint" />
            <Array as="points">
              <mxPoint x="450" y="109" />
              <mxPoint x="470" y="120" />
              <mxPoint x="466" y="140" />
            </Array>
          </mxGeometry>
        </mxCell>
        <mxCell id="ZjYZ1jOLjF3a_fjfkov7-18" value="&lt;i style=&quot;&quot;&gt;3. ACMD41 / R3&lt;br&gt;(card is busy)&lt;/i&gt;" style="edgeLabel;html=1;align=center;verticalAlign=middle;resizable=0;points=[];labelBackgroundColor=none;" parent="ZjYZ1jOLjF3a_fjfkov7-17" vertex="1" connectable="0">
          <mxGeometry x="-0.0997" y="-1" relative="1" as="geometry">
            <mxPoint x="42" y="-3" as="offset" />
          </mxGeometry>
        </mxCell>
        <mxCell id="ZjYZ1jOLjF3a_fjfkov7-19" value="READY" style="ellipse;whiteSpace=wrap;html=1;aspect=fixed;" parent="1" vertex="1">
          <mxGeometry x="360" y="200" width="80" height="80" as="geometry" />
        </mxCell>
        <mxCell id="ZjYZ1jOLjF3a_fjfkov7-20" value="" style="curved=1;endArrow=classic;html=1;rounded=0;exitX=0.5;exitY=1;exitDx=0;exitDy=0;entryX=0.5;entryY=0;entryDx=0;entryDy=0;" parent="1" source="ZjYZ1jOLjF3a_fjfkov7-1" target="ZjYZ1jOLjF3a_fjfkov7-19" edge="1">
          <mxGeometry width="50" height="50" relative="1" as="geometry">
            <mxPoint x="398.96000000000004" y="159.64" as="sourcePoint" />
            <mxPoint x="400" y="190" as="targetPoint" />
            <Array as="points" />
          </mxGeometry>
        </mxCell>
        <mxCell id="ZjYZ1jOLjF3a_fjfkov7-21" value="&lt;b style=&quot;&quot;&gt;3. ACMD41 / R3&lt;br&gt;(&lt;/b&gt;&lt;b&gt;VDD range compatible&lt;/b&gt;&lt;b style=&quot;&quot;&gt;)&lt;/b&gt;" style="edgeLabel;html=1;align=center;verticalAlign=middle;resizable=0;points=[];labelBackgroundColor=none;" parent="ZjYZ1jOLjF3a_fjfkov7-20" vertex="1" connectable="0">
          <mxGeometry x="-0.0997" y="-1" relative="1" as="geometry">
            <mxPoint x="-70" y="-1" as="offset" />
          </mxGeometry>
        </mxCell>
        <mxCell id="ZjYZ1jOLjF3a_fjfkov7-22" value="IDENT" style="ellipse;whiteSpace=wrap;html=1;aspect=fixed;" parent="1" vertex="1">
          <mxGeometry x="360" y="320" width="80" height="80" as="geometry" />
        </mxCell>
        <mxCell id="ZjYZ1jOLjF3a_fjfkov7-23" value="" style="curved=1;endArrow=classic;html=1;rounded=0;exitX=0.5;exitY=1;exitDx=0;exitDy=0;entryX=0.5;entryY=0;entryDx=0;entryDy=0;" parent="1" edge="1">
          <mxGeometry width="50" height="50" relative="1" as="geometry">
            <mxPoint x="400.0000000000001" y="280" as="sourcePoint" />
            <mxPoint x="400.0000000000001" y="320" as="targetPoint" />
            <Array as="points" />
          </mxGeometry>
        </mxCell>
        <mxCell id="ZjYZ1jOLjF3a_fjfkov7-24" value="&lt;b style=&quot;&quot;&gt;4. CMD2 / R2&lt;br&gt;(CID, ignore it)&lt;br&gt;&lt;/b&gt;" style="edgeLabel;html=1;align=center;verticalAlign=middle;resizable=0;points=[];labelBackgroundColor=none;" parent="ZjYZ1jOLjF3a_fjfkov7-23" vertex="1" connectable="0">
          <mxGeometry x="-0.0997" y="-1" relative="1" as="geometry">
            <mxPoint x="-49" y="-2" as="offset" />
          </mxGeometry>
        </mxCell>
        <mxCell id="ZjYZ1jOLjF3a_fjfkov7-25" value="STBY" style="ellipse;whiteSpace=wrap;html=1;aspect=fixed;" parent="1" vertex="1">
          <mxGeometry x="360" y="450" width="80" height="80" as="geometry" />
        </mxCell>
        <mxCell id="ZjYZ1jOLjF3a_fjfkov7-28" value="" style="endArrow=none;dashed=1;html=1;rounded=0;" parent="1" edge="1">
          <mxGeometry width="50" height="50" relative="1" as="geometry">
            <mxPoint x="230" y="420" as="sourcePoint" />
            <mxPoint x="680" y="420" as="targetPoint" />
          </mxGeometry>
        </mxCell>
        <mxCell id="ZjYZ1jOLjF3a_fjfkov7-29" value="&lt;font style=&quot;font-size: 20px;&quot;&gt;&lt;b&gt;Identification mode&lt;/b&gt;&lt;/font&gt;" style="text;html=1;strokeColor=none;fillColor=none;align=center;verticalAlign=middle;whiteSpace=wrap;rounded=0;labelBackgroundColor=none;" parent="1" vertex="1">
          <mxGeometry x="454" y="327" width="190" height="30" as="geometry" />
        </mxCell>
        <mxCell id="ZjYZ1jOLjF3a_fjfkov7-31" value="&lt;font style=&quot;font-size: 20px;&quot;&gt;&lt;b&gt;Data transfer mode&lt;/b&gt;&lt;/font&gt;" style="text;html=1;strokeColor=none;fillColor=none;align=center;verticalAlign=middle;whiteSpace=wrap;rounded=0;labelBackgroundColor=none;" parent="1" vertex="1">
          <mxGeometry x="454" y="486" width="190" height="30" as="geometry" />
        </mxCell>
        <mxCell id="ZjYZ1jOLjF3a_fjfkov7-32" value="" style="curved=1;endArrow=classic;html=1;rounded=0;exitX=0.5;exitY=1;exitDx=0;exitDy=0;entryX=0.5;entryY=0;entryDx=0;entryDy=0;" parent="1" target="ZjYZ1jOLjF3a_fjfkov7-25" edge="1">
          <mxGeometry width="50" height="50" relative="1" as="geometry">
            <mxPoint x="400.0000000000001" y="400" as="sourcePoint" />
            <mxPoint x="400.0000000000001" y="440" as="targetPoint" />
            <Array as="points" />
          </mxGeometry>
        </mxCell>
        <mxCell id="ZjYZ1jOLjF3a_fjfkov7-33" value="&lt;b style=&quot;&quot;&gt;5. CMD3 / R6&lt;br&gt;&lt;/b&gt;" style="edgeLabel;html=1;align=center;verticalAlign=middle;resizable=0;points=[];labelBackgroundColor=none;" parent="ZjYZ1jOLjF3a_fjfkov7-32" vertex="1" connectable="0">
          <mxGeometry x="-0.0997" y="-1" relative="1" as="geometry">
            <mxPoint x="-38" y="-13" as="offset" />
          </mxGeometry>
        </mxCell>
        <mxCell id="ZjYZ1jOLjF3a_fjfkov7-38" value="TRAN" style="ellipse;whiteSpace=wrap;html=1;aspect=fixed;" parent="1" vertex="1">
          <mxGeometry x="360" y="571" width="80" height="80" as="geometry" />
        </mxCell>
        <mxCell id="ZjYZ1jOLjF3a_fjfkov7-39" value="" style="endArrow=classic;html=1;rounded=0;fontSize=20;entryX=0.5;entryY=0;entryDx=0;entryDy=0;exitX=0.5;exitY=1;exitDx=0;exitDy=0;" parent="1" source="ZjYZ1jOLjF3a_fjfkov7-25" target="ZjYZ1jOLjF3a_fjfkov7-38" edge="1">
          <mxGeometry width="50" height="50" relative="1" as="geometry">
            <mxPoint x="360" y="480" as="sourcePoint" />
            <mxPoint x="410" y="430" as="targetPoint" />
          </mxGeometry>
        </mxCell>
        <mxCell id="ZjYZ1jOLjF3a_fjfkov7-41" value="&lt;span style=&quot;font-size: 11px;&quot;&gt;&lt;b&gt;7. CMD7 / R1b&lt;/b&gt;&lt;/span&gt;" style="edgeLabel;html=1;align=center;verticalAlign=middle;resizable=0;points=[];fontSize=20;labelBackgroundColor=none;" parent="ZjYZ1jOLjF3a_fjfkov7-39" vertex="1" connectable="0">
          <mxGeometry x="0.5625" y="1" relative="1" as="geometry">
            <mxPoint x="-40" y="-24" as="offset" />
          </mxGeometry>
        </mxCell>
        <mxCell id="ZjYZ1jOLjF3a_fjfkov7-42" value="" style="curved=1;endArrow=classic;html=1;rounded=0;exitX=0.792;exitY=0.092;exitDx=0;exitDy=0;exitPerimeter=0;entryX=1;entryY=0;entryDx=0;entryDy=0;" parent="1" target="ZjYZ1jOLjF3a_fjfkov7-38" edge="1">
          <mxGeometry width="50" height="50" relative="1" as="geometry">
            <mxPoint x="407.3599999999999" y="571.36" as="sourcePoint" />
            <mxPoint x="426.68000000000006" y="588.12" as="targetPoint" />
            <Array as="points">
              <mxPoint x="420" y="550" />
              <mxPoint x="440" y="560" />
            </Array>
          </mxGeometry>
        </mxCell>
        <mxCell id="ZjYZ1jOLjF3a_fjfkov7-43" value="&lt;b style=&quot;&quot;&gt;8. CMD55 / R1&lt;/b&gt;" style="edgeLabel;html=1;align=center;verticalAlign=middle;resizable=0;points=[];labelBackgroundColor=none;" parent="ZjYZ1jOLjF3a_fjfkov7-42" vertex="1" connectable="0">
          <mxGeometry x="-0.0997" y="-1" relative="1" as="geometry">
            <mxPoint x="19" y="-7" as="offset" />
          </mxGeometry>
        </mxCell>
        <mxCell id="ZjYZ1jOLjF3a_fjfkov7-44" value="" style="curved=1;endArrow=classic;html=1;rounded=0;exitX=0;exitY=0.5;exitDx=0;exitDy=0;entryX=1;entryY=0.5;entryDx=0;entryDy=0;" parent="1" source="ZjYZ1jOLjF3a_fjfkov7-38" target="ZjYZ1jOLjF3a_fjfkov7-50" edge="1">
          <mxGeometry width="50" height="50" relative="1" as="geometry">
            <mxPoint x="403.3599999999999" y="668.3600000000001" as="sourcePoint" />
            <mxPoint x="417.52" y="686.8400000000001" as="targetPoint" />
          </mxGeometry>
        </mxCell>
        <mxCell id="ZjYZ1jOLjF3a_fjfkov7-53" value="&lt;b&gt;10. CMD17 / R1&lt;/b&gt;" style="edgeLabel;html=1;align=center;verticalAlign=middle;resizable=0;points=[];fontSize=11;labelBackgroundColor=none;" parent="ZjYZ1jOLjF3a_fjfkov7-44" vertex="1" connectable="0">
          <mxGeometry x="-0.3758" relative="1" as="geometry">
            <mxPoint x="-15" y="-11" as="offset" />
          </mxGeometry>
        </mxCell>
        <mxCell id="ZjYZ1jOLjF3a_fjfkov7-46" value="" style="curved=1;endArrow=classic;html=1;rounded=0;exitX=0.926;exitY=0.237;exitDx=0;exitDy=0;exitPerimeter=0;entryX=0.982;entryY=0.361;entryDx=0;entryDy=0;entryPerimeter=0;" parent="1" target="ZjYZ1jOLjF3a_fjfkov7-38" edge="1">
          <mxGeometry width="50" height="50" relative="1" as="geometry">
            <mxPoint x="431.08000000000004" y="585.96" as="sourcePoint" />
            <mxPoint x="440" y="600" as="targetPoint" />
            <Array as="points">
              <mxPoint x="447" y="566" />
              <mxPoint x="460" y="590" />
            </Array>
          </mxGeometry>
        </mxCell>
        <mxCell id="ZjYZ1jOLjF3a_fjfkov7-47" value="&lt;b style=&quot;&quot;&gt;9. ACMD6 / R1&lt;/b&gt;" style="edgeLabel;html=1;align=center;verticalAlign=middle;resizable=0;points=[];labelBackgroundColor=none;" parent="ZjYZ1jOLjF3a_fjfkov7-46" vertex="1" connectable="0">
          <mxGeometry x="-0.0997" y="-1" relative="1" as="geometry">
            <mxPoint x="36" y="-8" as="offset" />
          </mxGeometry>
        </mxCell>
        <mxCell id="ZjYZ1jOLjF3a_fjfkov7-50" value="DATA" style="ellipse;whiteSpace=wrap;html=1;aspect=fixed;" parent="1" vertex="1">
          <mxGeometry x="200" y="571" width="80" height="80" as="geometry" />
        </mxCell>
        <mxCell id="ZjYZ1jOLjF3a_fjfkov7-55" value="" style="curved=1;endArrow=classic;html=1;rounded=0;fontSize=11;exitX=1;exitY=0;exitDx=0;exitDy=0;entryX=0;entryY=0;entryDx=0;entryDy=0;" parent="1" source="ZjYZ1jOLjF3a_fjfkov7-50" target="ZjYZ1jOLjF3a_fjfkov7-38" edge="1">
          <mxGeometry width="50" height="50" relative="1" as="geometry">
            <mxPoint x="380" y="620" as="sourcePoint" />
            <mxPoint x="430" y="570" as="targetPoint" />
            <Array as="points">
              <mxPoint x="310" y="560" />
            </Array>
          </mxGeometry>
        </mxCell>
        <mxCell id="ZjYZ1jOLjF3a_fjfkov7-60" value="" style="rounded=0;orthogonalLoop=1;jettySize=auto;html=1;fontSize=11;" parent="1" source="ZjYZ1jOLjF3a_fjfkov7-56" target="ZjYZ1jOLjF3a_fjfkov7-59" edge="1">
          <mxGeometry relative="1" as="geometry" />
        </mxCell>
        <mxCell id="ZjYZ1jOLjF3a_fjfkov7-56" value="RCV" style="ellipse;whiteSpace=wrap;html=1;aspect=fixed;" parent="1" vertex="1">
          <mxGeometry x="334" y="690" width="80" height="80" as="geometry" />
        </mxCell>
        <mxCell id="ZjYZ1jOLjF3a_fjfkov7-57" value="" style="curved=1;endArrow=classic;html=1;rounded=0;exitX=0.367;exitY=0.985;exitDx=0;exitDy=0;entryX=0.545;entryY=0.008;entryDx=0;entryDy=0;entryPerimeter=0;exitPerimeter=0;" parent="1" source="ZjYZ1jOLjF3a_fjfkov7-38" target="ZjYZ1jOLjF3a_fjfkov7-56" edge="1">
          <mxGeometry width="50" height="50" relative="1" as="geometry">
            <mxPoint x="385.76" y="652.8400000000001" as="sourcePoint" />
            <mxPoint x="349.9999999999999" y="700" as="targetPoint" />
          </mxGeometry>
        </mxCell>
        <mxCell id="ZjYZ1jOLjF3a_fjfkov7-58" value="&lt;b&gt;11. CMD24 / R1&lt;/b&gt;" style="edgeLabel;html=1;align=center;verticalAlign=middle;resizable=0;points=[];fontSize=11;labelBackgroundColor=none;" parent="ZjYZ1jOLjF3a_fjfkov7-57" vertex="1" connectable="0">
          <mxGeometry x="-0.3758" relative="1" as="geometry">
            <mxPoint x="38" y="11" as="offset" />
          </mxGeometry>
        </mxCell>
        <mxCell id="ZjYZ1jOLjF3a_fjfkov7-59" value="PRG" style="ellipse;whiteSpace=wrap;html=1;aspect=fixed;" parent="1" vertex="1">
          <mxGeometry x="240" y="651" width="80" height="80" as="geometry" />
        </mxCell>
        <mxCell id="ZjYZ1jOLjF3a_fjfkov7-61" value="" style="curved=1;endArrow=classic;html=1;rounded=0;fontSize=11;exitX=1;exitY=0;exitDx=0;exitDy=0;entryX=0.107;entryY=0.816;entryDx=0;entryDy=0;entryPerimeter=0;" parent="1" source="ZjYZ1jOLjF3a_fjfkov7-59" target="ZjYZ1jOLjF3a_fjfkov7-38" edge="1">
          <mxGeometry width="50" height="50" relative="1" as="geometry">
            <mxPoint x="382.2400000000015" y="860" as="sourcePoint" />
            <mxPoint x="294" y="622.3600000000001" as="targetPoint" />
          </mxGeometry>
        </mxCell>
        <mxCell id="ZjYZ1jOLjF3a_fjfkov7-62" value="" style="curved=1;endArrow=classic;html=1;rounded=0;fontSize=11;entryX=1;entryY=1;entryDx=0;entryDy=0;exitX=0.5;exitY=1;exitDx=0;exitDy=0;" parent="1" source="ZjYZ1jOLjF3a_fjfkov7-38" target="ZjYZ1jOLjF3a_fjfkov7-10" edge="1">
          <mxGeometry width="50" height="50" relative="1" as="geometry">
            <mxPoint x="406" y="650" as="sourcePoint" />
            <mxPoint x="789.9999999999999" y="527" as="targetPoint" />
            <Array as="points">
              <mxPoint x="660" y="710" />
              <mxPoint x="670" y="300" />
            </Array>
          </mxGeometry>
        </mxCell>
        <mxCell id="ZjYZ1jOLjF3a_fjfkov7-63" value="&lt;b&gt;CMD15&lt;/b&gt;" style="edgeLabel;html=1;align=center;verticalAlign=middle;resizable=0;points=[];fontSize=11;" parent="ZjYZ1jOLjF3a_fjfkov7-62" vertex="1" connectable="0">
          <mxGeometry x="0.3497" relative="1" as="geometry">
            <mxPoint x="-66" y="141" as="offset" />
          </mxGeometry>
        </mxCell>
        <mxCell id="Z62kFLgMn0JkQFBbgJXl-1" value="" style="curved=1;endArrow=classic;html=1;rounded=0;exitX=0.997;exitY=0.43;exitDx=0;exitDy=0;exitPerimeter=0;entryX=0.974;entryY=0.672;entryDx=0;entryDy=0;entryPerimeter=0;" parent="1" edge="1">
          <mxGeometry width="50" height="50" relative="1" as="geometry">
            <mxPoint x="439.7600000000001" y="603.4" as="sourcePoint" />
            <mxPoint x="437.91999999999996" y="622.7600000000001" as="targetPoint" />
            <Array as="points">
              <mxPoint x="462" y="604" />
              <mxPoint x="460" y="628" />
            </Array>
          </mxGeometry>
        </mxCell>
        <mxCell id="Z62kFLgMn0JkQFBbgJXl-2" value="&lt;b style=&quot;&quot;&gt;12. CMD13 / R1&lt;/b&gt;" style="edgeLabel;html=1;align=center;verticalAlign=middle;resizable=0;points=[];labelBackgroundColor=none;" parent="Z62kFLgMn0JkQFBbgJXl-1" vertex="1" connectable="0">
          <mxGeometry x="-0.0997" y="-1" relative="1" as="geometry">
            <mxPoint x="39" y="-2" as="offset" />
          </mxGeometry>
        </mxCell>
        <mxCell id="_k4n5UELKXxglqa8ZC2y-1" value="" style="curved=1;endArrow=classic;html=1;rounded=0;exitX=0.709;exitY=0.043;exitDx=0;exitDy=0;exitPerimeter=0;entryX=0.948;entryY=0.266;entryDx=0;entryDy=0;entryPerimeter=0;" edge="1" parent="1" source="ZjYZ1jOLjF3a_fjfkov7-25" target="ZjYZ1jOLjF3a_fjfkov7-25">
          <mxGeometry width="50" height="50" relative="1" as="geometry">
            <mxPoint x="417.3599999999999" y="461.36" as="sourcePoint" />
            <mxPoint x="438" y="473" as="targetPoint" />
            <Array as="points">
              <mxPoint x="430" y="440" />
              <mxPoint x="450" y="450" />
            </Array>
          </mxGeometry>
        </mxCell>
        <mxCell id="_k4n5UELKXxglqa8ZC2y-2" value="&lt;b style=&quot;&quot;&gt;6. CMD9 / R2 (CSD)&lt;/b&gt;" style="edgeLabel;html=1;align=center;verticalAlign=middle;resizable=0;points=[];labelBackgroundColor=none;" vertex="1" connectable="0" parent="_k4n5UELKXxglqa8ZC2y-1">
          <mxGeometry x="-0.0997" y="-1" relative="1" as="geometry">
            <mxPoint x="30" y="-10" as="offset" />
          </mxGeometry>
        </mxCell>
      </root>
    </mxGraphModel>
  </diagram>
</mxfile>
